<svg xmlns="http://www.w3.org/2000/svg" version="1.1" width="100" height="128"><style>.style0{opacity:0.6;}.style1{fill:#ffffff;stroke:#000000;stroke-width:12;stroke-linecap:square;}.style2{fill:#dedede;stroke:#000000;stroke-width:11.59659958;stroke-linecap:square;}.style3{fill:none;stroke:#000000;stroke-width:14.49574947;stroke-linecap:round;}.style4{fill:#f4edec;stroke:#710900;stroke-width:2.75796556;stroke-linejoin:round;}.style5{fill:#2d0400;}.style6{fill:#710900;}.style7{fill:#000000;}</style><g class="style0"><g transform="matrix(0.22983047,0,0,0.22983047,-9.5204828,-18.049236)"><path d="m 159.3 84.5 190.5 0 c 8.9 0 16 7.1 16 16 l -16 179 -190.5 0 -16 -179 c -0.8 -8.8 7.1 -16 16 -16 z" class="style1"/><rect width="331.4" height="104.9" rx="24.7" ry="26.5" x="88.8" y="233.1" class="style2"/><path d="m 139.3 301.5 230.5 0" class="style3"/></g>
<path d="m 41.1 24.1 c -5.4 0.1 -6.6 19.4 -6.2 23.8 0.4 4.5 -0.8 17.5 -1.4 16.9 -6.6 0 -10.5 3.6 -10.5 7.5 0 2.3 2.5 4.6 4.9 6.6 -0 1.5 0.2 2.9 0.7 3.9 3 4.5 0.8 11.5 5.3 15.7 5.6 4.9 29.9 4.7 34.3 1.5 4 -2.2 10.2 -10.4 12.3 -17.8 0.8 -1.2 1.7 -2.4 2.7 -3.4 1 -5 -4.1 -9.5 -9.5 -7.5 -0.3 0.3 -0.6 0.6 -0.9 1.1 -0.3 -0.1 -0.5 -0.3 -0.8 -0.4 0.1 -0.7 0.2 -1.4 0.2 -2.2 -0.7 -4.8 -5.5 -8.3 -10 -6.5 -0.5 1 -1.2 2.2 -2.1 3.6 -0.5 -0.2 -1.1 -0.4 -1.6 -0.5 0.7 -1.9 1.4 -3.8 2.1 -5.6 -0.3 -3.7 -6.9 -5.5 -9.5 -5.5 -2.6 0 -4.1 4.7 -4.9 9.1 0.2 -1.8 0.4 -4.4 0.4 -6.6 C 45.7 51.6 48.8 31.5 46 25.8 44.1 24.6 42.5 24.1 41.1 24.1 z" class="style4"><animateTransform attributeName="transform" type="rotate" dur="2s" repeatDur="indefinite" values="-20,50,80;20,50,80;-20,50,80" keyTimes="0;0.5;1" calcMode="spline" keySplines=".33 0 .67 1;.33 0 .67 1"/></path><g class="style5">
<path d="m 3.5 120.5 0 -10 c 0 -0.8 0.9 -1.1 2 -1.1 4.8 0 5.2 3.5 5.2 7 0 4.5 -1.4 5.2 -4.6 5.2 -2.2 0 -2.5 -0.4 -2.5 -1.1 M 1.9 108.3 c -0.8 0 -1.9 -0.1 -1.9 -0.1 L -0 108.3 C 0.2 109.6 0.3 111.1 0.3 112.8 l 0 5.5 c 0 1.7 -0.1 3.3 -0.3 4.5 L 0 122.8 c 0 0 1.1 -0.1 1.9 -0.1 1.9 0 2.5 0 4.8 0 3.2 0 7.6 -1.4 7.6 -6.9 0 -4.2 -3.7 -7.6 -8 -7.6 -1.7 0 -2.7 0.1 -4.4 0.1" class="style6"/><path d="m 16.4 118.2 c 0 3 2.1 4.8 5.4 4.8 3.4 0 5.4 -1.9 5.4 -5 0 -2.8 -1.6 -5 -5.4 -5 -3.2 0 -5.5 1.8 -5.5 5.2 m 5.3 -4.1 c 1.9 0 2.4 1.4 2.4 4.5 0 2.6 -0.9 3.3 -1.9 3.3 -2.3 0 -2.6 -2.5 -2.6 -4.2 0 -2 0.2 -3.6 2.1 -3.6" class="style6"/>
<path d="m 39.6 118.7 0 -2.5 c 0 -2.4 -1.1 -3.3 -3.1 -3.3 -1.1 0 -2.5 0.7 -3.5 2 l -0.1 -0.1 c 0 -0.5 0 -1.4 -0 -1.6 -0 -0.1 -0.1 -0.2 -0.2 -0.2 -0.7 0.1 -2.1 0.1 -2.9 0.1 l -0 0.1 c 0.2 1 0.2 2.7 0.2 4.3 l 0 1.2 c 0 1.7 -0.1 2.8 -0.2 4 l 0 0.1 c 0 0 1.1 -0.1 1.8 -0.1 0.8 0 1.4 0.1 1.4 0.1 l 0.1 -0.1 c -0.1 -1.3 -0.1 -2.3 -0.1 -4 l 0 -2.3 c 0.9 -1.1 1.8 -1.8 2.6 -1.8 0.6 0 1.2 0.4 1.2 2.1 l 0 2 c 0 1.7 0 2.8 -0.1 4 l 0 0.1 c 0 0 0.7 -0.1 1.5 -0.1 0.8 0 1.7 0.1 1.7 0.1 l 0 -0.1 c -0.2 -1.3 -0.2 -2.3 -0.2 -4" class="style6"/><path d="m 42.1 114.3 1.5 0 -0.1 2.6 c -0 1.3 -0.1 3.2 -0.1 3.9 0 1.1 0.7 2.2 2.2 2.2 1.2 0 2.3 -0.2 3.3 -0.8 0 -0.4 -0.1 -0.8 -0.4 -0.9 -0.5 0.2 -0.7 0.3 -1.3 0.3 -0.6 0 -0.8 -0.8 -0.8 -1.7 0 -0.7 -0 -1.8 0 -3.2 l 0 -2.4 2 0 c 0.2 0 0.5 -0.1 0.5 -0.3 l 0 -0.7 c 0 -0.1 -0.1 -0.1 -0.2 -0.1 l -2.4 0 c 0 -1.7 0 -1.8 0.1 -3.1 0 -0.2 -0.1 -0.2 -0.2 -0.2 -0.6 0.2 -2 0.8 -2.9 1 l -0 0.1 c 0.2 0.9 0.2 1 0.2 2.3 l -1.3 0 c -0.2 0 -0.5 0.4 -0.5 0.8 0 0.2 0.1 0.4 0.3 0.4" class="style6"/>
<path d="m 54.3 116.4 c 0.5 -1.2 1.6 -2.1 2.4 -2.1 1.4 0 1.8 1.6 1.8 3.9 0 2.2 -1 3.5 -2.2 3.5 -0.6 0 -1.2 -0.1 -2 -0.8 l 0 -4.6 m 0.1 -1.7 -0.1 -0.1 c 0 -0.5 0 -1.2 -0 -1.4 -0 -0.1 -0.1 -0.2 -0.2 -0.2 -0.7 0.1 -2.1 0.1 -2.9 0.1 l -0 0.1 c 0.2 1 0.2 2.7 0.2 4.3 l 0 6 c 0 1.7 -0 3.3 -0.2 4.5 l 0 0.1 c 0 0 0.9 -0.1 1.7 -0.1 0.8 0 1.7 0.1 1.7 0.1 l 0 -0.1 c -0.2 -1.3 -0.2 -2.8 -0.2 -4.5 l 0 -1.1 c 0.7 0.5 1.6 0.6 2.4 0.6 2.8 0 5 -2.3 5 -5.5 0 -1.8 -0.7 -2.9 -1.7 -3.8 -0.7 -0.5 -1.4 -0.8 -2.5 -0.8 -1 0 -2 0.3 -3.1 1.8" class="style7"/><path d="m 67.7 114.9 -0.1 -0.1 c 0 -0.5 0 -1.4 -0 -1.6 -0 -0.1 -0.1 -0.2 -0.2 -0.2 -0.7 0.1 -2.1 0.1 -2.9 0.1 l -0 0.1 c 0.2 1 0.2 2.7 0.2 4.3 l 0 1.2 c 0 1.7 -0 2.8 -0.2 4 l 0 0.1 c 0 0 0.7 -0.1 1.5 -0.1 0.8 0 1.8 0.1 1.8 0.1 l 0 -0.1 c -0.2 -1.3 -0.2 -2.3 -0.2 -4 l 0 -1.6 c 0 -1.7 1.5 -2 1.9 -2 0.4 0 0.9 0.1 1.3 0.4 l 0.4 -0 0.4 -2.3 -0.1 -0.1 c -0.4 -0.1 -0.7 -0.2 -1.1 -0.2 -1.1 0 -2.1 1.1 -2.7 2" class="style7"/>
<path d="m 73.9 109.1 c 0 0.9 0.7 1.6 1.7 1.6 0.9 0 1.7 -0.7 1.7 -1.6 0 -0.9 -0.7 -1.6 -1.7 -1.6 -0.9 0 -1.7 0.7 -1.7 1.6 m 0.2 8.3 0 1.2 c 0 1.7 -0 2.8 -0.2 4 l 0 0.1 c 0.7 -0 0.9 -0.1 1.7 -0.1 0.8 0 1 0 1.7 0.1 l 0 -0.1 c -0.2 -1.3 -0.2 -2.3 -0.2 -4 l 0 -1.5 c 0 -1.7 0.1 -2.6 0.2 -4 0 -0.2 -0.1 -0.2 -0.2 -0.2 -0.3 0 -0.9 0.1 -1.5 0.1 -0.6 0 -1.2 -0 -1.6 -0.1 l -0.1 0.1 c 0.2 1 0.2 2.6 0.2 4.3" class="style7"/><path d="m 90.5 118.7 0 -2.5 c 0 -2.4 -1.1 -3.3 -3.1 -3.3 -1.1 0 -2.5 0.7 -3.5 2 l -0.1 -0.1 c 0 -0.5 0 -1.4 -0 -1.6 -0 -0.1 -0.1 -0.2 -0.2 -0.2 -0.7 0.1 -2.1 0.1 -2.9 0.1 l -0 0.1 c 0.2 1 0.2 2.7 0.2 4.3 l 0 1.2 c 0 1.7 -0.1 2.8 -0.2 4 l 0 0.1 c 0 0 1.1 -0.1 1.8 -0.1 0.8 0 1.4 0.1 1.4 0.1 l 0.1 -0.1 c -0.1 -1.3 -0.1 -2.3 -0.1 -4 l 0 -2.3 c 0.9 -1.1 1.8 -1.8 2.6 -1.8 0.6 0 1.2 0.4 1.2 2.1 l 0 2 c 0 1.7 0 2.8 -0.1 4 l 0 0.1 c 0 0 0.7 -0.1 1.5 -0.1 0.8 0 1.7 0.1 1.7 0.1 l 0 -0.1 c -0.2 -1.3 -0.2 -2.3 -0.2 -4" class="style7"/>
<path d="m 93.1 114.3 1.5 0 -0.1 2.6 c -0 1.3 -0.1 3.2 -0.1 3.9 0 1.1 0.7 2.2 2.2 2.2 1.2 0 2.3 -0.2 3.3 -0.8 0 -0.4 -0.1 -0.8 -0.4 -0.9 -0.5 0.2 -0.7 0.3 -1.3 0.3 -0.6 0 -0.8 -0.8 -0.8 -1.7 0 -0.7 -0 -1.8 0 -3.2 l 0 -2.4 2 0 c 0.2 0 0.5 -0.1 0.5 -0.3 l 0 -0.7 c 0 -0.1 -0.1 -0.1 -0.2 -0.1 l -2.4 0 c 0 -1.7 0 -1.8 0.1 -3.1 0 -0.2 -0.1 -0.2 -0.2 -0.2 -0.6 0.2 -2 0.8 -2.9 1 l -0 0.1 c 0.2 0.9 0.2 1 0.2 2.3 l -1.3 0 c -0.2 0 -0.5 0.4 -0.5 0.8 0 0.2 0.1 0.4 0.3 0.4" class="style7"/></g></g></svg>
